<svg xmlns="http://www.w3.org/2000/svg" xmlns:xlink="http://www.w3.org/1999/xlink" width="500" zoomAndPan="magnify" viewBox="0 0 375 374.999991" height="500" preserveAspectRatio="xMidYMid meet" version="1.0"><rect x="-37.5" width="450" fill="#ffffff" y="-37.499999" height="449.999989" fill-opacity="1"/><rect x="-37.5" width="450" fill="#ffffff" y="-37.499999" height="449.999989" fill-opacity="1"/><rect x="-37.5" width="450" fill="#545454" y="-37.499999" height="449.999989" fill-opacity="1"/><path fill="#e44d26" d="M 62.578125 319.214844 L 36.128906 22.476562 L 326.859375 22.476562 L 300.371094 319.175781 L 181.308594 352.183594 Z M 62.578125 319.214844 " fill-opacity="1" fill-rule="nonzero"/><path fill="#f16529" d="M 181.492188 326.945312 L 277.695312 300.273438 L 300.335938 46.726562 L 181.492188 46.726562 Z M 181.492188 326.945312 " fill-opacity="1" fill-rule="nonzero"/><path fill="#ebebeb" d="M 181.492188 156.8125 L 133.320312 156.8125 L 130.023438 119.519531 L 181.492188 119.519531 L 181.492188 83.140625 L 90.238281 83.140625 L 91.117188 92.886719 L 100.054688 193.191406 L 181.492188 193.191406 Z M 181.492188 156.8125 " fill-opacity="1" fill-rule="nonzero"/><path fill="#ebebeb" d="M 181.492188 251.332031 L 181.347656 251.367188 L 140.792969 240.414062 L 138.230469 211.398438 L 101.667969 211.398438 L 106.761719 268.546875 L 181.308594 289.246094 L 181.492188 289.171875 Z M 181.492188 251.332031 " fill-opacity="1" fill-rule="nonzero"/><path fill="#ffffff" d="M 181.382812 156.8125 L 181.382812 193.191406 L 226.1875 193.191406 L 221.972656 240.375 L 181.382812 251.367188 L 181.382812 289.210938 L 255.972656 268.546875 L 256.519531 262.394531 L 265.09375 166.558594 L 265.972656 156.8125 Z M 181.382812 156.8125 " fill-opacity="1" fill-rule="nonzero"/><path fill="#ffffff" d="M 181.382812 83.140625 L 181.382812 119.519531 L 269.269531 119.519531 L 270.003906 111.351562 L 271.652344 92.886719 L 272.53125 83.140625 Z M 181.382812 83.140625 " fill-opacity="1" fill-rule="nonzero"/></svg>