<svg xmlns="http://www.w3.org/2000/svg" xmlns:xlink="http://www.w3.org/1999/xlink" width="500" zoomAndPan="magnify" viewBox="0 0 375 374.999991" height="500" preserveAspectRatio="xMidYMid meet" version="1.0"><defs><clipPath id="527a0772b6"><path d="M 35 20.640625 L 330 20.640625 L 330 354.390625 L 35 354.390625 Z M 35 20.640625 " clip-rule="nonzero"/></clipPath></defs><rect x="-37.5" width="450" fill="#ffffff" y="-37.499999" height="449.999989" fill-opacity="1"/><rect x="-37.5" width="450" fill="#545454" y="-37.499999" height="449.999989" fill-opacity="1"/><g clip-path="url(#527a0772b6)"><path fill="#264de4" d="M 329.484375 20.640625 L 302.671875 320.972656 L 182.164062 354.378906 L 61.988281 321.019531 L 35.207031 20.640625 Z M 329.484375 20.640625 " fill-opacity="1" fill-rule="nonzero"/></g><path fill="#2965f1" d="M 182.34375 328.84375 L 279.722656 301.847656 L 302.632812 45.199219 L 182.34375 45.199219 Z M 182.34375 328.84375 " fill-opacity="1" fill-rule="nonzero"/><path fill="#ebebeb" d="M 182.34375 156.605469 L 96.601562 156.605469 L 99.902344 193.445312 L 182.34375 193.445312 Z M 182.34375 156.605469 " fill-opacity="1" fill-rule="nonzero"/><path fill="#ebebeb" d="M 182.34375 82.039062 L 89.964844 82.039062 L 93.316406 118.878906 L 182.34375 118.878906 Z M 182.34375 82.039062 " fill-opacity="1" fill-rule="nonzero"/><path fill="#ebebeb" d="M 101.550781 211.867188 L 106.710938 269.710938 L 182.175781 290.660156 L 182.34375 290.613281 L 182.34375 252.285156 L 182.183594 252.328125 L 141.152344 241.25 L 138.53125 211.867188 Z M 101.550781 211.867188 " fill-opacity="1" fill-rule="nonzero"/><path fill="#ffffff" d="M 227.582031 193.445312 L 223.304688 241.226562 L 182.21875 252.316406 L 182.21875 290.644531 L 257.742188 269.710938 L 258.296875 263.488281 L 266.953125 166.5 L 267.851562 156.605469 L 274.503906 82.039062 L 182.21875 82.039062 L 182.21875 118.878906 L 234.128906 118.878906 L 230.777344 156.605469 L 182.21875 156.605469 L 182.21875 193.445312 Z M 227.582031 193.445312 " fill-opacity="1" fill-rule="nonzero"/></svg>