<svg xmlns="http://www.w3.org/2000/svg" xmlns:xlink="http://www.w3.org/1999/xlink" width="500" zoomAndPan="magnify" viewBox="0 0 375 374.999991" height="500" preserveAspectRatio="xMidYMid meet" version="1.0"><defs><clipPath id="62bd8064ae"><path d="M 72.113281 66.339844 L 292 66.339844 L 292 303.59375 L 72.113281 303.59375 Z M 72.113281 66.339844 " clip-rule="nonzero"/></clipPath><clipPath id="3596acd3f3"><path d="M 35.25 20.640625 L 329.25 20.640625 L 329.25 354.390625 L 35.25 354.390625 Z M 35.25 20.640625 " clip-rule="nonzero"/></clipPath></defs><rect x="-37.5" width="450" fill="#ffffff" y="-37.499999" height="449.999989" fill-opacity="1"/><rect x="-37.5" width="450" fill="#545454" y="-37.499999" height="449.999989" fill-opacity="1"/><g clip-path="url(#62bd8064ae)"><path fill="#ffffff" d="M 72.113281 66.339844 L 291.839844 66.339844 L 291.839844 303.644531 L 72.113281 303.644531 Z M 72.113281 66.339844 " fill-opacity="1" fill-rule="nonzero"/></g><g clip-path="url(#3596acd3f3)"><path fill="#d4b830" d="M 35.257812 20.640625 L 62.015625 321.027344 L 182.070312 354.390625 L 302.460938 320.980469 L 329.242188 20.640625 Z M 172.367188 285.390625 C 80.863281 267.125 172.367188 285.390625 80.515625 267.140625 L 75.359375 209.292969 C 87.671875 209.292969 112.304688 209.292969 112.304688 209.292969 L 114.925781 238.675781 L 135.421875 241.679688 L 135.421875 116.320312 L 93.597656 116.320312 L 90.183594 79.464844 L 172.367188 79.464844 Z M 286.097656 116.304688 L 230.949219 116.304688 L 230.949219 154.03125 L 282.816406 154.03125 L 272.617188 267.140625 L 192.472656 285.394531 L 192.472656 246.988281 L 238.21875 238.652344 L 242.648438 190.871094 L 192.472656 190.871094 L 192.472656 79.464844 L 289.363281 79.464844 Z M 286.097656 116.304688 " fill-opacity="1" fill-rule="nonzero"/></g></svg>