<svg xmlns="http://www.w3.org/2000/svg" xmlns:xlink="http://www.w3.org/1999/xlink" width="500" zoomAndPan="magnify" viewBox="0 0 375 374.999991" height="500" preserveAspectRatio="xMidYMid meet" version="1.0"><rect x="-37.5" width="450" fill="#ffffff" y="-37.499999" height="449.999989" fill-opacity="1"/><rect x="-37.5" width="450" fill="#545454" y="-37.499999" height="449.999989" fill-opacity="1"/><path fill="#00d8ff" d="M 211.730469 179.617188 C 211.730469 180.601562 211.679688 181.582031 211.585938 182.558594 C 211.488281 183.539062 211.34375 184.507812 211.152344 185.472656 C 210.960938 186.4375 210.722656 187.390625 210.4375 188.328125 C 210.152344 189.269531 209.820312 190.195312 209.445312 191.101562 C 209.066406 192.011719 208.648438 192.898438 208.183594 193.765625 C 207.722656 194.632812 207.214844 195.476562 206.671875 196.292969 C 206.125 197.109375 205.539062 197.898438 204.914062 198.660156 C 204.292969 199.417969 203.632812 200.144531 202.9375 200.839844 C 202.242188 201.535156 201.515625 202.195312 200.753906 202.820312 C 199.996094 203.445312 199.207031 204.027344 198.390625 204.574219 C 197.570312 205.121094 196.730469 205.625 195.863281 206.089844 C 194.996094 206.550781 194.109375 206.972656 193.199219 207.347656 C 192.289062 207.722656 191.367188 208.054688 190.425781 208.339844 C 189.484375 208.625 188.53125 208.863281 187.570312 209.054688 C 186.605469 209.25 185.632812 209.390625 184.65625 209.488281 C 183.675781 209.585938 182.695312 209.632812 181.710938 209.632812 C 180.730469 209.632812 179.75 209.585938 178.769531 209.488281 C 177.792969 209.390625 176.820312 209.25 175.855469 209.054688 C 174.890625 208.863281 173.941406 208.625 173 208.339844 C 172.058594 208.054688 171.132812 207.722656 170.226562 207.347656 C 169.316406 206.972656 168.429688 206.550781 167.5625 206.089844 C 166.695312 205.625 165.851562 205.121094 165.035156 204.574219 C 164.21875 204.027344 163.429688 203.445312 162.671875 202.820312 C 161.910156 202.195312 161.183594 201.535156 160.488281 200.839844 C 159.792969 200.144531 159.132812 199.417969 158.507812 198.660156 C 157.886719 197.898438 157.300781 197.109375 156.753906 196.292969 C 156.207031 195.476562 155.703125 194.632812 155.238281 193.765625 C 154.777344 192.898438 154.355469 192.011719 153.980469 191.101562 C 153.605469 190.195312 153.273438 189.269531 152.988281 188.328125 C 152.703125 187.390625 152.464844 186.4375 152.273438 185.472656 C 152.082031 184.507812 151.9375 183.539062 151.839844 182.558594 C 151.742188 181.582031 151.695312 180.601562 151.695312 179.617188 C 151.695312 178.632812 151.742188 177.652344 151.839844 176.675781 C 151.9375 175.695312 152.082031 174.726562 152.273438 173.761719 C 152.464844 172.796875 152.703125 171.84375 152.988281 170.902344 C 153.273438 169.960938 153.605469 169.039062 153.980469 168.128906 C 154.355469 167.222656 154.777344 166.332031 155.238281 165.46875 C 155.703125 164.601562 156.207031 163.757812 156.753906 162.941406 C 157.300781 162.121094 157.886719 161.335938 158.507812 160.574219 C 159.132812 159.8125 159.792969 159.085938 160.488281 158.390625 C 161.183594 157.695312 161.910156 157.039062 162.671875 156.414062 C 163.429688 155.789062 164.21875 155.203125 165.035156 154.660156 C 165.851562 154.113281 166.695312 153.609375 167.5625 153.144531 C 168.429688 152.679688 169.316406 152.261719 170.226562 151.886719 C 171.132812 151.507812 172.058594 151.179688 173 150.890625 C 173.941406 150.605469 174.890625 150.367188 175.855469 150.175781 C 176.820312 149.984375 177.792969 149.839844 178.769531 149.746094 C 179.75 149.648438 180.730469 149.601562 181.710938 149.601562 C 182.695312 149.601562 183.675781 149.648438 184.65625 149.746094 C 185.632812 149.839844 186.605469 149.984375 187.570312 150.175781 C 188.53125 150.367188 189.484375 150.605469 190.425781 150.890625 C 191.367188 151.179688 192.289062 151.507812 193.199219 151.886719 C 194.109375 152.261719 194.996094 152.679688 195.863281 153.144531 C 196.730469 153.609375 197.570312 154.113281 198.390625 154.660156 C 199.207031 155.203125 199.996094 155.789062 200.753906 156.414062 C 201.515625 157.039062 202.242188 157.695312 202.9375 158.390625 C 203.632812 159.085938 204.292969 159.8125 204.914062 160.574219 C 205.539062 161.335938 206.125 162.121094 206.671875 162.941406 C 207.214844 163.757812 207.722656 164.601562 208.183594 165.46875 C 208.648438 166.332031 209.066406 167.222656 209.445312 168.128906 C 209.820312 169.039062 210.152344 169.960938 210.4375 170.902344 C 210.722656 171.84375 210.960938 172.796875 211.152344 173.761719 C 211.34375 174.726562 211.488281 175.695312 211.585938 176.675781 C 211.679688 177.652344 211.730469 178.632812 211.730469 179.617188 Z M 211.730469 179.617188 " fill-opacity="1" fill-rule="nonzero"/><path fill="#00d8ff" d="M 183.917969 116.347656 C 235.097656 116.695312 290.933594 120.429688 329.261719 154.605469 C 330.386719 155.613281 331.472656 156.660156 332.53125 157.738281 C 341.574219 166.953125 346.300781 181.835938 339 194.082031 C 324.027344 219.226562 290.539062 230.191406 258.113281 236.941406 C 209.625 247.035156 158.921875 247.117188 110.453125 238.230469 C 82.558594 233.109375 54.039062 224.132812 34.21875 205.355469 C 26.5 198.050781 19.90625 188.4375 20.9375 177.738281 C 22.613281 160.433594 39.21875 149.324219 53.195312 141.804688 C 92.011719 120.917969 139.308594 116.246094 183.917969 116.347656 Z M 180.203125 124.207031 C 131.78125 124.535156 79.371094 127.628906 41.980469 158.589844 C 40.671875 159.667969 39.410156 160.800781 38.199219 161.988281 C 37.414062 162.75 36.65625 163.550781 35.925781 164.367188 C 29.363281 171.742188 27.105469 183.585938 33.296875 192.441406 C 39.53125 201.347656 48.996094 207.777344 58.742188 213.019531 C 95.195312 232.617188 138.269531 236.097656 180.265625 236.246094 C 222.78125 236.398438 266.628906 232.523438 304.183594 213.105469 C 319.148438 205.363281 335.984375 193.996094 335.386719 179.355469 C 334.839844 165.921875 321.742188 157.625 311.933594 151.699219 C 309.28125 150.097656 306.550781 148.613281 303.78125 147.21875 C 266.5 128.539062 222.808594 124.113281 180.203125 124.207031 Z M 180.203125 124.207031 " fill-opacity="1" fill-rule="evenodd"/><path fill="#00d8ff" d="M 249.507812 37.160156 C 268.230469 37.636719 277.929688 60.148438 279.210938 76.769531 C 279.464844 80.074219 279.558594 83.394531 279.519531 86.710938 C 279.476562 90.304688 279.28125 93.898438 278.96875 97.476562 C 275.019531 141.796875 254.78125 184.007812 230.953125 222.984375 C 207.648438 261.113281 179.226562 299.132812 140.5625 316.804688 C 127.777344 322.648438 112.578125 326.253906 101.261719 319.730469 C 85.75 310.796875 84.054688 289.894531 84.34375 274.042969 C 84.417969 270.148438 84.671875 266.253906 85.074219 262.375 C 91.03125 204.996094 120.117188 150.640625 156.515625 103.8125 C 177.75 76.488281 203.015625 49.386719 234.484375 39.574219 C 239.441406 38.027344 243.375 37.089844 249.507812 37.160156 Z M 248.609375 45.019531 C 226.628906 45.367188 206.894531 61.65625 189.421875 78.582031 C 143.476562 123.070312 109.621094 182.238281 96 244.289062 C 94.945312 249.09375 94.0625 253.933594 93.414062 258.808594 C 92.910156 262.582031 92.539062 266.375 92.347656 270.183594 C 92.191406 273.210938 92.136719 276.25 92.234375 279.285156 C 92.300781 281.660156 92.453125 284.03125 92.714844 286.390625 C 92.910156 288.195312 93.171875 289.992188 93.5 291.773438 C 93.746094 293.09375 94.035156 294.40625 94.371094 295.714844 C 94.644531 296.773438 94.953125 297.828125 95.300781 298.871094 C 98.042969 307.136719 105.109375 315.03125 114.59375 315.292969 C 136.722656 315.898438 157.554688 299.761719 175.566406 282.226562 C 207.183594 251.453125 230.746094 212.785156 249.152344 172.136719 C 264.007812 139.316406 277.59375 103.644531 270.007812 67.519531 C 269.71875 66.152344 269.382812 64.800781 269 63.457031 C 268.683594 62.367188 268.332031 61.285156 267.941406 60.21875 C 264.992188 52.183594 258.054688 44.996094 248.609375 45.019531 Z M 248.609375 45.019531 " fill-opacity="1" fill-rule="evenodd"/><path fill="#00d8ff" d="M 115.40625 37.457031 C 139.296875 37.917969 160.75 54.132812 179.800781 72.292969 C 214.566406 105.425781 240.203125 147.574219 259.65625 191.9375 C 274.726562 226.304688 288.585938 264.878906 276.265625 301.144531 C 272.386719 312.574219 262.566406 323.03125 249.472656 323.296875 C 225.46875 323.78125 203.222656 306.324219 183.917969 287.535156 C 135.488281 240.386719 99.53125 178.140625 87.210938 112.128906 C 86.328125 107.410156 85.625 102.652344 85.140625 97.871094 C 84.746094 93.972656 84.496094 90.050781 84.429688 86.128906 C 84.375 82.964844 84.445312 79.800781 84.664062 76.648438 C 84.8125 74.546875 85.027344 72.453125 85.316406 70.367188 C 85.589844 68.410156 85.9375 66.460938 86.375 64.53125 C 86.664062 63.25 86.984375 61.984375 87.351562 60.722656 C 90.964844 48.371094 100.363281 37.363281 115.40625 37.457031 Z M 114.5 45.320312 C 100.511719 45.628906 94.109375 62.125 92.824219 73.699219 C 92.5625 76.074219 92.398438 78.464844 92.328125 80.859375 C 92.234375 83.917969 92.273438 86.980469 92.425781 90.035156 C 94.625 134.269531 114.398438 177.035156 138.261719 216.195312 C 160.730469 253.0625 187.867188 289.78125 225.1875 308.660156 C 235.96875 314.109375 249.066406 318.390625 258.375 313.242188 C 270.054688 306.78125 271.488281 291.382812 272.109375 279.910156 C 272.277344 276.785156 272.296875 273.648438 272.199219 270.519531 C 272.078125 266.589844 271.769531 262.667969 271.304688 258.765625 C 267.003906 222.320312 250.863281 187.835938 232.320312 155.242188 C 209.25 114.703125 180.980469 74.296875 140.976562 53.1875 C 132.691406 48.820312 123.722656 45.246094 114.5 45.320312 Z M 114.5 45.320312 " fill-opacity="1" fill-rule="evenodd"/></svg>