<svg xmlns="http://www.w3.org/2000/svg" xmlns:xlink="http://www.w3.org/1999/xlink" width="500" zoomAndPan="magnify" viewBox="0 0 375 374.999991" height="500" preserveAspectRatio="xMidYMid meet" version="1.0"><rect x="-37.5" width="450" fill="#ffffff" y="-37.499999" height="449.999989" fill-opacity="1"/><rect x="-37.5" width="450" fill="#ffffff" y="-37.499999" height="449.999989" fill-opacity="1"/><rect x="-37.5" width="450" fill="#545454" y="-37.499999" height="449.999989" fill-opacity="1"/><path fill="#ee513b" d="M 19.859375 192.671875 C 10.441406 183.253906 10.441406 167.976562 19.859375 158.558594 L 164.722656 13.695312 C 174.144531 4.277344 189.417969 4.277344 198.839844 13.695312 L 343.699219 158.558594 C 353.121094 167.976562 353.121094 183.253906 343.699219 192.671875 L 198.839844 337.535156 C 189.417969 346.953125 174.144531 346.953125 164.722656 337.535156 Z M 19.859375 192.671875 " fill-opacity="1" fill-rule="nonzero"/><path fill="#ffffff" d="M 135.296875 43.585938 L 120.628906 58.253906 L 158.515625 96.140625 C 156.980469 99.429688 156.125 103.097656 156.125 106.964844 C 156.125 117.941406 163.023438 127.3125 172.722656 130.96875 L 172.722656 223.652344 C 163.023438 227.3125 156.125 236.679688 156.125 247.65625 C 156.125 261.824219 167.609375 273.308594 181.773438 273.308594 C 195.941406 273.308594 207.425781 261.824219 207.425781 247.65625 C 207.425781 237.703125 201.753906 229.074219 193.46875 224.824219 L 193.46875 131.097656 L 229.6875 167.3125 C 228.226562 170.535156 227.417969 174.109375 227.417969 177.878906 C 227.417969 192.042969 238.902344 203.527344 253.066406 203.527344 C 267.230469 203.527344 278.714844 192.042969 278.714844 177.878906 C 278.714844 163.710938 267.230469 152.226562 253.066406 152.226562 C 250.3125 152.226562 247.664062 152.660156 245.175781 153.464844 L 206.277344 114.566406 C 207.023438 112.164062 207.425781 109.609375 207.425781 106.964844 C 207.425781 92.796875 195.941406 81.316406 181.773438 81.316406 C 179.128906 81.316406 176.574219 81.714844 174.171875 82.460938 Z M 135.296875 43.585938 " fill-opacity="1" fill-rule="nonzero"/></svg>