<svg xmlns="http://www.w3.org/2000/svg" xmlns:xlink="http://www.w3.org/1999/xlink" width="500" zoomAndPan="magnify" viewBox="0 0 375 374.999991" height="500" preserveAspectRatio="xMidYMid meet" version="1.0"><rect x="-37.5" width="450" fill="#ffffff" y="-37.499999" height="449.999989" fill-opacity="1"/><rect x="-37.5" width="450" fill="#545454" y="-37.499999" height="449.999989" fill-opacity="1"/><path fill="#0c0824" d="M 44.679688 45.699219 L 318.382812 45.699219 L 318.382812 311.9375 L 44.679688 311.9375 Z M 44.679688 45.699219 " fill-opacity="1" fill-rule="nonzero"/><path fill="#31c5f0" d="M 44.679688 45.699219 L 318.382812 45.699219 L 318.382812 311.9375 L 44.679688 311.9375 Z M 32.234375 324.382812 L 330.828125 324.382812 L 330.828125 33.253906 L 32.234375 33.253906 Z M 233.539062 152.691406 C 223.707031 152.691406 220.347656 157.671875 220.347656 161.777344 C 220.347656 166.257812 222.589844 169.371094 235.78125 176.207031 C 255.316406 185.664062 261.375 194.742188 261.375 208.058594 C 261.375 227.96875 246.199219 238.667969 225.671875 238.667969 C 221.265625 238.828125 216.90625 238.460938 212.589844 237.558594 C 208.277344 236.65625 204.132812 235.25 200.164062 233.335938 C 199.289062 232.960938 199.171875 232.34375 199.171875 231.339844 L 199.171875 213.03125 C 199.171875 211.78125 199.789062 211.410156 200.664062 212.039062 C 204.394531 214.4375 208.382812 216.257812 212.640625 217.507812 C 216.894531 218.753906 221.238281 219.378906 225.671875 219.375 C 235.503906 219.375 239.609375 215.269531 239.609375 209.671875 C 239.609375 205.191406 236.75 201.214844 224.175781 194.742188 C 206.507812 186.285156 199.171875 177.679688 199.171875 163.386719 C 199.171875 147.339844 211.734375 134.03125 233.507812 134.03125 C 241.164062 133.703125 248.585938 134.863281 255.773438 137.519531 C 256.191406 137.789062 256.511719 138.144531 256.734375 138.589844 C 256.960938 139.035156 257.054688 139.507812 257.023438 140.003906 L 257.023438 157.066406 C 257.023438 158.054688 256.40625 158.6875 255.15625 158.3125 C 251.867188 156.417969 248.386719 154.996094 244.710938 154.046875 C 241.039062 153.097656 237.304688 152.652344 233.507812 152.714844 Z M 126.539062 167.496094 C 129.394531 167.738281 131.636719 167.738281 136.613281 167.738281 C 151.171875 167.738281 164.851562 162.640625 164.851562 142.859375 C 164.851562 127.054688 155.019531 119.101562 138.480469 119.101562 C 133.5 119.101562 128.777344 119.347656 126.539062 119.472656 Z M 104.386719 101.378906 C 104.386719 100.503906 106.125 99.882812 107.128906 99.882812 C 115.09375 99.511719 126.910156 99.265625 139.226562 99.265625 C 173.695312 99.265625 187.128906 118.171875 187.128906 142.316406 C 187.128906 173.914062 164.234375 187.480469 136.125 187.480469 C 131.398438 187.480469 129.78125 187.234375 126.421875 187.234375 L 126.421875 235.007812 C 126.421875 236 126.046875 236.5 124.925781 236.5 L 105.890625 236.5 C 104.898438 236.5 104.398438 236.128906 104.398438 235.007812 L 104.398438 101.429688 Z M 104.386719 101.378906 " fill-opacity="1" fill-rule="nonzero"/></svg>