<svg xmlns="http://www.w3.org/2000/svg" xmlns:xlink="http://www.w3.org/1999/xlink" width="500" zoomAndPan="magnify" viewBox="0 0 375 374.999991" height="500" preserveAspectRatio="xMidYMid meet" version="1.0"><rect x="-37.5" width="450" fill="#ffffff" y="-37.499999" height="449.999989" fill-opacity="1"/><rect x="-37.5" width="450" fill="#545454" y="-37.499999" height="449.999989" fill-opacity="1"/><path fill="#028cb0" d="M 343.519531 184.875 C 343.519531 187.523438 343.457031 190.167969 343.324219 192.8125 C 343.195312 195.457031 343 198.097656 342.742188 200.730469 C 342.484375 203.367188 342.160156 205.992188 341.769531 208.609375 C 341.382812 211.230469 340.929688 213.835938 340.414062 216.433594 C 339.894531 219.03125 339.316406 221.613281 338.671875 224.179688 C 338.03125 226.75 337.324219 229.300781 336.554688 231.832031 C 335.785156 234.367188 334.957031 236.878906 334.066406 239.371094 C 333.171875 241.863281 332.21875 244.335938 331.207031 246.78125 C 330.195312 249.226562 329.121094 251.644531 327.988281 254.039062 C 326.859375 256.433594 325.667969 258.796875 324.417969 261.128906 C 323.171875 263.464844 321.867188 265.769531 320.507812 268.039062 C 319.144531 270.308594 317.730469 272.546875 316.257812 274.746094 C 314.789062 276.949219 313.265625 279.113281 311.6875 281.238281 C 310.109375 283.363281 308.480469 285.453125 306.800781 287.496094 C 305.121094 289.542969 303.394531 291.546875 301.617188 293.511719 C 299.835938 295.472656 298.011719 297.386719 296.140625 299.261719 C 294.269531 301.132812 292.351562 302.957031 290.390625 304.734375 C 288.429688 306.511719 286.425781 308.242188 284.378906 309.921875 C 282.332031 311.601562 280.246094 313.230469 278.117188 314.804688 C 275.992188 316.382812 273.828125 317.90625 271.628906 319.378906 C 269.425781 320.847656 267.191406 322.265625 264.917969 323.625 C 262.648438 324.988281 260.347656 326.292969 258.011719 327.539062 C 255.675781 328.789062 253.3125 329.976562 250.917969 331.109375 C 248.527344 332.242188 246.105469 333.3125 243.660156 334.328125 C 241.214844 335.339844 238.746094 336.292969 236.253906 337.183594 C 233.761719 338.078125 231.246094 338.90625 228.714844 339.675781 C 226.179688 340.445312 223.628906 341.148438 221.0625 341.792969 C 218.492188 342.4375 215.910156 343.015625 213.3125 343.53125 C 210.71875 344.046875 208.109375 344.5 205.492188 344.890625 C 202.871094 345.277344 200.246094 345.601562 197.609375 345.863281 C 194.976562 346.121094 192.335938 346.316406 189.691406 346.445312 C 187.046875 346.574219 184.402344 346.640625 181.753906 346.640625 C 179.109375 346.640625 176.460938 346.574219 173.816406 346.445312 C 171.171875 346.316406 168.535156 346.121094 165.898438 345.863281 C 163.265625 345.601562 160.636719 345.277344 158.019531 344.890625 C 155.402344 344.5 152.792969 344.046875 150.195312 343.53125 C 147.601562 343.015625 145.015625 342.4375 142.449219 341.792969 C 139.882812 341.148438 137.332031 340.445312 134.796875 339.675781 C 132.265625 338.90625 129.75 338.078125 127.257812 337.183594 C 124.765625 336.292969 122.296875 335.339844 119.851562 334.328125 C 117.40625 333.3125 114.984375 332.242188 112.589844 331.109375 C 110.199219 329.976562 107.835938 328.789062 105.5 327.539062 C 103.164062 326.292969 100.863281 324.988281 98.589844 323.625 C 96.320312 322.265625 94.085938 320.847656 91.882812 319.378906 C 89.683594 317.90625 87.519531 316.382812 85.390625 314.804688 C 83.265625 313.230469 81.179688 311.601562 79.132812 309.921875 C 77.085938 308.242188 75.082031 306.511719 73.121094 304.734375 C 71.160156 302.957031 69.242188 301.132812 67.371094 299.261719 C 65.496094 297.386719 63.671875 295.472656 61.894531 293.511719 C 60.117188 291.546875 58.386719 289.542969 56.707031 287.496094 C 55.03125 285.453125 53.402344 283.363281 51.824219 281.238281 C 50.246094 279.113281 48.722656 276.949219 47.253906 274.746094 C 45.78125 272.546875 44.367188 270.308594 43.003906 268.039062 C 41.644531 265.769531 40.339844 263.464844 39.089844 261.128906 C 37.84375 258.796875 36.652344 256.433594 35.519531 254.039062 C 34.390625 251.644531 33.316406 249.226562 32.304688 246.78125 C 31.289062 244.335938 30.335938 241.863281 29.445312 239.371094 C 28.554688 236.878906 27.722656 234.367188 26.957031 231.832031 C 26.1875 229.300781 25.480469 226.75 24.835938 224.179688 C 24.195312 221.613281 23.613281 219.03125 23.097656 216.433594 C 22.582031 213.835938 22.128906 211.230469 21.742188 208.609375 C 21.351562 205.992188 21.027344 203.367188 20.769531 200.730469 C 20.507812 198.097656 20.316406 195.457031 20.183594 192.8125 C 20.054688 190.167969 19.988281 187.523438 19.988281 184.875 C 19.988281 182.226562 20.054688 179.582031 20.183594 176.9375 C 20.316406 174.292969 20.507812 171.652344 20.769531 169.019531 C 21.027344 166.382812 21.351562 163.757812 21.742188 161.140625 C 22.128906 158.519531 22.582031 155.914062 23.097656 153.316406 C 23.613281 150.71875 24.195312 148.136719 24.835938 145.570312 C 25.480469 143 26.1875 140.449219 26.957031 137.917969 C 27.722656 135.382812 28.554688 132.871094 29.445312 130.378906 C 30.335938 127.886719 31.289062 125.414062 32.304688 122.96875 C 33.316406 120.523438 34.390625 118.105469 35.519531 115.710938 C 36.652344 113.316406 37.84375 110.953125 39.089844 108.621094 C 40.339844 106.285156 41.644531 103.980469 43.003906 101.710938 C 44.367188 99.441406 45.78125 97.203125 47.253906 95.003906 C 48.722656 92.800781 50.246094 90.636719 51.824219 88.511719 C 53.402344 86.386719 55.03125 84.296875 56.707031 82.25 C 58.386719 80.207031 60.117188 78.203125 61.894531 76.238281 C 63.671875 74.277344 65.496094 72.363281 67.371094 70.488281 C 69.242188 68.617188 71.160156 66.792969 73.121094 65.015625 C 75.082031 63.238281 77.085938 61.507812 79.132812 59.828125 C 81.179688 58.148438 83.265625 56.519531 85.390625 54.945312 C 87.519531 53.367188 89.683594 51.84375 91.882812 50.371094 C 94.085938 48.902344 96.320312 47.484375 98.589844 46.125 C 100.863281 44.761719 103.164062 43.457031 105.5 42.210938 C 107.835938 40.960938 110.199219 39.773438 112.589844 38.640625 C 114.984375 37.507812 117.40625 36.4375 119.851562 35.421875 C 122.296875 34.410156 124.765625 33.457031 127.257812 32.566406 C 129.75 31.671875 132.265625 30.84375 134.796875 30.074219 C 137.332031 29.304688 139.882812 28.601562 142.449219 27.957031 C 145.015625 27.3125 147.601562 26.734375 150.195312 26.21875 C 152.792969 25.699219 155.402344 25.25 158.019531 24.859375 C 160.636719 24.472656 163.265625 24.148438 165.898438 23.886719 C 168.535156 23.628906 171.171875 23.433594 173.816406 23.304688 C 176.460938 23.175781 179.109375 23.109375 181.753906 23.109375 C 184.402344 23.109375 187.046875 23.175781 189.691406 23.304688 C 192.335938 23.433594 194.976562 23.628906 197.609375 23.886719 C 200.246094 24.148438 202.871094 24.472656 205.492188 24.859375 C 208.109375 25.25 210.71875 25.699219 213.3125 26.21875 C 215.910156 26.734375 218.492188 27.3125 221.0625 27.957031 C 223.628906 28.601562 226.179688 29.304688 228.714844 30.074219 C 231.246094 30.84375 233.761719 31.671875 236.253906 32.566406 C 238.746094 33.457031 241.214844 34.410156 243.660156 35.421875 C 246.105469 36.4375 248.527344 37.507812 250.917969 38.640625 C 253.3125 39.773438 255.675781 40.960938 258.011719 42.210938 C 260.347656 43.457031 262.648438 44.761719 264.917969 46.125 C 267.191406 47.484375 269.425781 48.902344 271.628906 50.371094 C 273.828125 51.84375 275.992188 53.367188 278.117188 54.945312 C 280.246094 56.519531 282.332031 58.148438 284.378906 59.828125 C 286.425781 61.507812 288.429688 63.238281 290.390625 65.015625 C 292.351562 66.792969 294.269531 68.617188 296.140625 70.488281 C 298.011719 72.363281 299.835938 74.277344 301.617188 76.238281 C 303.394531 78.203125 305.121094 80.207031 306.800781 82.25 C 308.480469 84.296875 310.109375 86.386719 311.6875 88.511719 C 313.265625 90.636719 314.789062 92.800781 316.257812 95.003906 C 317.730469 97.203125 319.144531 99.441406 320.507812 101.710938 C 321.867188 103.980469 323.171875 106.285156 324.417969 108.621094 C 325.667969 110.953125 326.859375 113.316406 327.988281 115.710938 C 329.121094 118.105469 330.195312 120.523438 331.207031 122.96875 C 332.21875 125.414062 333.171875 127.886719 334.066406 130.378906 C 334.957031 132.871094 335.785156 135.382812 336.554688 137.917969 C 337.324219 140.449219 338.03125 143 338.671875 145.570312 C 339.316406 148.136719 339.894531 150.71875 340.414062 153.316406 C 340.929688 155.914062 341.382812 158.519531 341.769531 161.140625 C 342.160156 163.757812 342.484375 166.382812 342.742188 169.019531 C 343 171.652344 343.195312 174.292969 343.324219 176.9375 C 343.457031 179.582031 343.519531 182.226562 343.519531 184.875 Z M 343.519531 184.875 " fill-opacity="1" fill-rule="nonzero"/><path fill="#ffffff" d="M 71.46875 184.875 C 71.46875 228.578125 96.890625 266.21875 133.652344 284.113281 L 81.050781 140 C 74.734375 154.117188 71.46875 169.410156 71.46875 184.875 Z M 181.753906 295.160156 C 194.5625 295.160156 206.882812 292.910156 218.417969 288.902344 L 217.636719 287.4375 L 183.710938 194.554688 L 150.664062 290.664062 C 160.441406 293.59375 170.902344 295.160156 181.753906 295.160156 Z M 196.910156 133.152344 L 236.800781 251.75 L 247.847656 214.988281 C 252.542969 199.738281 256.160156 188.785156 256.160156 179.300781 C 256.160156 165.613281 251.269531 156.230469 247.164062 148.992188 C 241.492188 139.800781 236.3125 132.078125 236.3125 123.082031 C 236.3125 112.914062 243.9375 103.53125 254.886719 103.53125 L 256.257812 103.53125 C 235.933594 84.875 209.339844 74.542969 181.753906 74.589844 C 163.488281 74.585938 145.511719 79.125 129.433594 87.792969 C 113.355469 96.464844 99.6875 108.992188 89.65625 124.257812 L 96.695312 124.453125 C 108.230469 124.453125 126.027344 122.984375 126.027344 122.984375 C 132.085938 122.695312 132.773438 131.394531 126.808594 132.078125 C 126.808594 132.078125 120.84375 132.863281 114.097656 133.152344 L 154.378906 252.628906 L 178.527344 180.28125 L 161.320312 133.152344 C 157.46875 132.941406 153.621094 132.617188 149.785156 132.175781 C 143.820312 131.785156 144.503906 122.695312 150.46875 122.984375 C 150.46875 122.984375 168.65625 124.453125 179.507812 124.453125 C 191.042969 124.453125 208.835938 122.984375 208.835938 122.984375 C 214.800781 122.695312 215.585938 131.394531 209.621094 132.078125 C 209.621094 132.078125 203.65625 132.761719 196.910156 133.152344 Z M 237.191406 280.199219 C 253.875 270.5 267.722656 256.589844 277.347656 239.863281 C 286.972656 223.136719 292.039062 204.175781 292.039062 184.875 C 292.039062 165.710938 287.152344 147.722656 278.546875 131.980469 C 280.292969 149.300781 277.671875 166.777344 270.921875 182.820312 Z M 181.753906 311.976562 C 148.046875 311.976562 115.71875 298.585938 91.882812 274.75 C 68.042969 250.914062 54.652344 218.585938 54.652344 184.875 C 54.652344 151.164062 68.042969 118.835938 91.882812 95 C 115.71875 71.164062 148.046875 57.773438 181.753906 57.773438 C 215.464844 57.773438 247.792969 71.164062 271.628906 95 C 295.464844 118.835938 308.855469 151.164062 308.855469 184.875 C 308.855469 218.585938 295.464844 250.914062 271.628906 274.75 C 247.792969 298.585938 215.464844 311.976562 181.753906 311.976562 Z M 181.753906 311.976562 " fill-opacity="1" fill-rule="nonzero"/></svg>